<svg width="800" height="480" xmlns="http://www.w3.org/2000/svg">
  <defs>
    <style>
      .theme-title { font-family: Arial, sans-serif; font-size: 14px; font-weight: bold; fill: #333; }
      .color-label { font-family: monospace; font-size: 10px; fill: #666; }
      .color-hex { font-family: monospace; font-size: 9px; fill: #999; }
    </style>
  </defs>

  <!-- Nightfox -->
  <g transform="translate(10, 20)">
    <text x="0" y="0" class="theme-title">Nightfox</text>
    <rect x="0" y="10" width="80" height="40" fill="#131a24" stroke="#666" stroke-width="1"/>
    <text x="40" y="30" text-anchor="middle" class="color-label">bg</text>
    <text x="40" y="42" text-anchor="middle" class="color-hex">#131a24</text>

    <rect x="90" y="10" width="80" height="40" fill="#aeafb0" stroke="#666" stroke-width="1"/>
    <text x="130" y="30" text-anchor="middle" class="color-label">fg</text>
    <text x="130" y="42" text-anchor="middle" class="color-hex">#aeafb0</text>

    <rect x="180" y="10" width="80" height="40" fill="#71839b" stroke="#666" stroke-width="1"/>
    <text x="220" y="30" text-anchor="middle" class="color-label">gray</text>
    <text x="220" y="42" text-anchor="middle" class="color-hex">#71839b</text>

    <rect x="270" y="10" width="80" height="40" fill="#719cd6" stroke="#666" stroke-width="1"/>
    <text x="310" y="30" text-anchor="middle" class="color-label">accent</text>
    <text x="310" y="42" text-anchor="middle" class="color-hex">#719cd6</text>
  </g>

  <!-- Carbonfox -->
  <g transform="translate(10, 80)">
    <text x="0" y="0" class="theme-title">Carbonfox</text>
    <rect x="0" y="10" width="80" height="40" fill="#0c0c0c" stroke="#666" stroke-width="1"/>
    <text x="40" y="30" text-anchor="middle" class="color-label">bg</text>
    <text x="40" y="42" text-anchor="middle" class="color-hex">#0c0c0c</text>

    <rect x="90" y="10" width="80" height="40" fill="#b6b8bb" stroke="#666" stroke-width="1"/>
    <text x="130" y="30" text-anchor="middle" class="color-label">fg</text>
    <text x="130" y="42" text-anchor="middle" class="color-hex">#b6b8bb</text>

    <rect x="180" y="10" width="80" height="40" fill="#7b7c7e" stroke="#666" stroke-width="1"/>
    <text x="220" y="30" text-anchor="middle" class="color-label">gray</text>
    <text x="220" y="42" text-anchor="middle" class="color-hex">#7b7c7e</text>

    <rect x="270" y="10" width="80" height="40" fill="#78a9ff" stroke="#666" stroke-width="1"/>
    <text x="310" y="30" text-anchor="middle" class="color-label">accent</text>
    <text x="310" y="42" text-anchor="middle" class="color-hex">#78a9ff</text>
  </g>

  <!-- Dawnfox -->
  <g transform="translate(10, 140)">
    <text x="0" y="0" class="theme-title">Dawnfox</text>
    <rect x="0" y="10" width="80" height="40" fill="#ebe5df" stroke="#666" stroke-width="1"/>
    <text x="40" y="30" text-anchor="middle" class="color-label">bg</text>
    <text x="40" y="42" text-anchor="middle" class="color-hex">#ebe5df</text>

    <rect x="90" y="10" width="80" height="40" fill="#625c87" stroke="#666" stroke-width="1"/>
    <text x="130" y="30" text-anchor="middle" class="color-label">fg</text>
    <text x="130" y="42" text-anchor="middle" class="color-hex">#625c87</text>

    <rect x="180" y="10" width="80" height="40" fill="#a8a3b3" stroke="#666" stroke-width="1"/>
    <text x="220" y="30" text-anchor="middle" class="color-label">gray</text>
    <text x="220" y="42" text-anchor="middle" class="color-hex">#a8a3b3</text>

    <rect x="270" y="10" width="80" height="40" fill="#286983" stroke="#666" stroke-width="1"/>
    <text x="310" y="30" text-anchor="middle" class="color-label">accent</text>
    <text x="310" y="42" text-anchor="middle" class="color-hex">#286983</text>
  </g>

  <!-- Dayfox -->
  <g transform="translate(10, 200)">
    <text x="0" y="0" class="theme-title">Dayfox</text>
    <rect x="0" y="10" width="80" height="40" fill="#e4dcd4" stroke="#666" stroke-width="1"/>
    <text x="40" y="30" text-anchor="middle" class="color-label">bg</text>
    <text x="40" y="42" text-anchor="middle" class="color-hex">#e4dcd4</text>

    <rect x="90" y="10" width="80" height="40" fill="#643f61" stroke="#666" stroke-width="1"/>
    <text x="130" y="30" text-anchor="middle" class="color-label">fg</text>
    <text x="130" y="42" text-anchor="middle" class="color-hex">#643f61</text>

    <rect x="180" y="10" width="80" height="40" fill="#824d5b" stroke="#666" stroke-width="1"/>
    <text x="220" y="30" text-anchor="middle" class="color-label">gray</text>
    <text x="220" y="42" text-anchor="middle" class="color-hex">#824d5b</text>

    <rect x="270" y="10" width="80" height="40" fill="#2848a9" stroke="#666" stroke-width="1"/>
    <text x="310" y="30" text-anchor="middle" class="color-label">accent</text>
    <text x="310" y="42" text-anchor="middle" class="color-hex">#2848a9</text>
  </g>

  <!-- Duskfox -->
  <g transform="translate(10, 260)">
    <text x="0" y="0" class="theme-title">Duskfox</text>
    <rect x="0" y="10" width="80" height="40" fill="#191726" stroke="#666" stroke-width="1"/>
    <text x="40" y="30" text-anchor="middle" class="color-label">bg</text>
    <text x="40" y="42" text-anchor="middle" class="color-hex">#191726</text>

    <rect x="90" y="10" width="80" height="40" fill="#cdcbe0" stroke="#666" stroke-width="1"/>
    <text x="130" y="30" text-anchor="middle" class="color-label">fg</text>
    <text x="130" y="42" text-anchor="middle" class="color-hex">#cdcbe0</text>

    <rect x="180" y="10" width="80" height="40" fill="#6e6a86" stroke="#666" stroke-width="1"/>
    <text x="220" y="30" text-anchor="middle" class="color-label">gray</text>
    <text x="220" y="42" text-anchor="middle" class="color-hex">#6e6a86</text>

    <rect x="270" y="10" width="80" height="40" fill="#569fba" stroke="#666" stroke-width="1"/>
    <text x="310" y="30" text-anchor="middle" class="color-label">accent</text>
    <text x="310" y="42" text-anchor="middle" class="color-hex">#569fba</text>
  </g>

  <!-- Nordfox -->
  <g transform="translate(10, 320)">
    <text x="0" y="0" class="theme-title">Nordfox</text>
    <rect x="0" y="10" width="80" height="40" fill="#232831" stroke="#666" stroke-width="1"/>
    <text x="40" y="30" text-anchor="middle" class="color-label">bg</text>
    <text x="40" y="42" text-anchor="middle" class="color-hex">#232831</text>

    <rect x="90" y="10" width="80" height="40" fill="#abb1bb" stroke="#666" stroke-width="1"/>
    <text x="130" y="30" text-anchor="middle" class="color-label">fg</text>
    <text x="130" y="42" text-anchor="middle" class="color-hex">#abb1bb</text>

    <rect x="180" y="10" width="80" height="40" fill="#7e8188" stroke="#666" stroke-width="1"/>
    <text x="220" y="30" text-anchor="middle" class="color-label">gray</text>
    <text x="220" y="42" text-anchor="middle" class="color-hex">#7e8188</text>

    <rect x="270" y="10" width="80" height="40" fill="#81a1c1" stroke="#666" stroke-width="1"/>
    <text x="310" y="30" text-anchor="middle" class="color-label">accent</text>
    <text x="310" y="42" text-anchor="middle" class="color-hex">#81a1c1</text>
  </g>

  <!-- Terafox -->
  <g transform="translate(10, 380)">
    <text x="0" y="0" class="theme-title">Terafox</text>
    <rect x="0" y="10" width="80" height="40" fill="#0f1c1e" stroke="#666" stroke-width="1"/>
    <text x="40" y="30" text-anchor="middle" class="color-label">bg</text>
    <text x="40" y="42" text-anchor="middle" class="color-hex">#0f1c1e</text>

    <rect x="90" y="10" width="80" height="40" fill="#cbd9d8" stroke="#666" stroke-width="1"/>
    <text x="130" y="30" text-anchor="middle" class="color-label">fg</text>
    <text x="130" y="42" text-anchor="middle" class="color-hex">#cbd9d8</text>

    <rect x="180" y="10" width="80" height="40" fill="#587b7b" stroke="#666" stroke-width="1"/>
    <text x="220" y="30" text-anchor="middle" class="color-label">gray</text>
    <text x="220" y="42" text-anchor="middle" class="color-hex">#587b7b</text>

    <rect x="270" y="10" width="80" height="40" fill="#5a93aa" stroke="#666" stroke-width="1"/>
    <text x="310" y="30" text-anchor="middle" class="color-label">accent</text>
    <text x="310" y="42" text-anchor="middle" class="color-hex">#5a93aa</text>
  </g>
</svg>