<svg width="1200" height="1000" xmlns="http://www.w3.org/2000/svg">
  <defs>
    <style>
      .theme-title { font-family: Arial, sans-serif; font-size: 21px; font-weight: bold; fill: #333; }
      .color-label { font-family: monospace; font-size: 15px; fill: #666; }
      .color-hex { font-family: monospace; font-size: 14px; fill: #999; }
    </style>
  </defs>

  <!-- Nightfox -->
  <g transform="translate(15, 30)">
    <text x="0" y="0" class="theme-title">Nightfox</text>
    <rect x="0" y="15" width="120" height="60" fill="#131a24" stroke="#666" stroke-width="1"/>
    <text x="60" y="45" text-anchor="middle" class="color-label">bg</text>
    <text x="60" y="63" text-anchor="middle" class="color-hex">#131a24</text>

    <rect x="135" y="15" width="120" height="60" fill="#aeafb0" stroke="#666" stroke-width="1"/>
    <text x="195" y="45" text-anchor="middle" class="color-label">fg</text>
    <text x="195" y="63" text-anchor="middle" class="color-hex">#aeafb0</text>

    <rect x="270" y="15" width="120" height="60" fill="#71839b" stroke="#666" stroke-width="1"/>
    <text x="330" y="45" text-anchor="middle" class="color-label">gray</text>
    <text x="330" y="63" text-anchor="middle" class="color-hex">#71839b</text>

    <rect x="405" y="15" width="120" height="60" fill="#719cd6" stroke="#666" stroke-width="1"/>
    <text x="465" y="45" text-anchor="middle" class="color-label">accent</text>
    <text x="465" y="63" text-anchor="middle" class="color-hex">#719cd6</text>
  </g>

  <!-- Carbonfox -->
  <g transform="translate(15, 150)">
    <text x="0" y="0" class="theme-title">Carbonfox</text>
    <rect x="0" y="15" width="120" height="60" fill="#161616" stroke="#666" stroke-width="1"/>
    <text x="60" y="45" text-anchor="middle" class="color-label">bg</text>
    <text x="60" y="63" text-anchor="middle" class="color-hex">#161616</text>

    <rect x="135" y="15" width="120" height="60" fill="#f2f4f8" stroke="#666" stroke-width="1"/>
    <text x="195" y="45" text-anchor="middle" class="color-label">fg</text>
    <text x="195" y="63" text-anchor="middle" class="color-hex">#f2f4f8</text>

    <rect x="270" y="15" width="120" height="60" fill="#7b7c7e" stroke="#666" stroke-width="1"/>
    <text x="330" y="45" text-anchor="middle" class="color-label">gray</text>
    <text x="330" y="63" text-anchor="middle" class="color-hex">#7b7c7e</text>

    <rect x="405" y="15" width="120" height="60" fill="#78a9ff" stroke="#666" stroke-width="1"/>
    <text x="465" y="45" text-anchor="middle" class="color-label">accent</text>
    <text x="465" y="63" text-anchor="middle" class="color-hex">#78a9ff</text>
  </g>

  <!-- Dawnfox -->
  <g transform="translate(15, 270)">
    <text x="0" y="0" class="theme-title">Dawnfox</text>
    <rect x="0" y="15" width="120" height="60" fill="#faf4ed" stroke="#666" stroke-width="1"/>
    <text x="60" y="45" text-anchor="middle" class="color-label">bg</text>
    <text x="60" y="63" text-anchor="middle" class="color-hex">#faf4ed</text>

    <rect x="135" y="15" width="120" height="60" fill="#575279" stroke="#666" stroke-width="1"/>
    <text x="195" y="45" text-anchor="middle" class="color-label">fg</text>
    <text x="195" y="63" text-anchor="middle" class="color-hex">#575279</text>

    <rect x="270" y="15" width="120" height="60" fill="#a8a3b3" stroke="#666" stroke-width="1"/>
    <text x="330" y="45" text-anchor="middle" class="color-label">gray</text>
    <text x="330" y="63" text-anchor="middle" class="color-hex">#a8a3b3</text>

    <rect x="405" y="15" width="120" height="60" fill="#286983" stroke="#666" stroke-width="1"/>
    <text x="465" y="45" text-anchor="middle" class="color-label">accent</text>
    <text x="465" y="63" text-anchor="middle" class="color-hex">#286983</text>
  </g>

  <!-- Dayfox -->
  <g transform="translate(15, 390)">
    <text x="0" y="0" class="theme-title">Dayfox</text>
    <rect x="0" y="15" width="120" height="60" fill="#f6f2ee" stroke="#666" stroke-width="1"/>
    <text x="60" y="45" text-anchor="middle" class="color-label">bg</text>
    <text x="60" y="63" text-anchor="middle" class="color-hex">#f6f2ee</text>

    <rect x="135" y="15" width="120" height="60" fill="#575279" stroke="#666" stroke-width="1"/>
    <text x="195" y="45" text-anchor="middle" class="color-label">fg</text>
    <text x="195" y="63" text-anchor="middle" class="color-hex">#575279</text>

    <rect x="270" y="15" width="120" height="60" fill="#9a8a7e" stroke="#666" stroke-width="1"/>
    <text x="330" y="45" text-anchor="middle" class="color-label">gray</text>
    <text x="330" y="63" text-anchor="middle" class="color-hex">#9a8a7e</text>

    <rect x="405" y="15" width="120" height="60" fill="#3d6ea5" stroke="#666" stroke-width="1"/>
    <text x="465" y="45" text-anchor="middle" class="color-label">accent</text>
    <text x="465" y="63" text-anchor="middle" class="color-hex">#3d6ea5</text>
  </g>

  <!-- Duskfox -->
  <g transform="translate(15, 510)">
    <text x="0" y="0" class="theme-title">Duskfox</text>
    <rect x="0" y="15" width="120" height="60" fill="#191726" stroke="#666" stroke-width="1"/>
    <text x="60" y="45" text-anchor="middle" class="color-label">bg</text>
    <text x="60" y="63" text-anchor="middle" class="color-hex">#191726</text>

    <rect x="135" y="15" width="120" height="60" fill="#cdcbe0" stroke="#666" stroke-width="1"/>
    <text x="195" y="45" text-anchor="middle" class="color-label">fg</text>
    <text x="195" y="63" text-anchor="middle" class="color-hex">#cdcbe0</text>

    <rect x="270" y="15" width="120" height="60" fill="#6e6a86" stroke="#666" stroke-width="1"/>
    <text x="330" y="45" text-anchor="middle" class="color-label">gray</text>
    <text x="330" y="63" text-anchor="middle" class="color-hex">#6e6a86</text>

    <rect x="405" y="15" width="120" height="60" fill="#569fba" stroke="#666" stroke-width="1"/>
    <text x="465" y="45" text-anchor="middle" class="color-label">accent</text>
    <text x="465" y="63" text-anchor="middle" class="color-hex">#569fba</text>
  </g>

  <!-- Nordfox -->
  <g transform="translate(15, 630)">
    <text x="0" y="0" class="theme-title">Nordfox</text>
    <rect x="0" y="15" width="120" height="60" fill="#2E3440" stroke="#666" stroke-width="1"/>
    <text x="60" y="45" text-anchor="middle" class="color-label">bg</text>
    <text x="60" y="63" text-anchor="middle" class="color-hex">#2E3440</text>

    <rect x="135" y="15" width="120" height="60" fill="#D8DEE9" stroke="#666" stroke-width="1"/>
    <text x="195" y="45" text-anchor="middle" class="color-label">fg</text>
    <text x="195" y="63" text-anchor="middle" class="color-hex">#D8DEE9</text>

    <rect x="270" y="15" width="120" height="60" fill="#7e8188" stroke="#666" stroke-width="1"/>
    <text x="330" y="45" text-anchor="middle" class="color-label">gray</text>
    <text x="330" y="63" text-anchor="middle" class="color-hex">#7e8188</text>

    <rect x="405" y="15" width="120" height="60" fill="#81A1C1" stroke="#666" stroke-width="1"/>
    <text x="465" y="45" text-anchor="middle" class="color-label">accent</text>
    <text x="465" y="63" text-anchor="middle" class="color-hex">#81A1C1</text>
  </g>

  <!-- Terafox -->
  <g transform="translate(15, 750)">
    <text x="0" y="0" class="theme-title">Terafox</text>
    <rect x="0" y="15" width="120" height="60" fill="#0f1c1e" stroke="#666" stroke-width="1"/>
    <text x="60" y="45" text-anchor="middle" class="color-label">bg</text>
    <text x="60" y="63" text-anchor="middle" class="color-hex">#0f1c1e</text>

    <rect x="135" y="15" width="120" height="60" fill="#cbd9d8" stroke="#666" stroke-width="1"/>
    <text x="195" y="45" text-anchor="middle" class="color-label">fg</text>
    <text x="195" y="63" text-anchor="middle" class="color-hex">#cbd9d8</text>

    <rect x="270" y="15" width="120" height="60" fill="#587b7b" stroke="#666" stroke-width="1"/>
    <text x="330" y="45" text-anchor="middle" class="color-label">gray</text>
    <text x="330" y="63" text-anchor="middle" class="color-hex">#587b7b</text>

    <rect x="405" y="15" width="120" height="60" fill="#5a93aa" stroke="#666" stroke-width="1"/>
    <text x="465" y="45" text-anchor="middle" class="color-label">accent</text>
    <text x="465" y="63" text-anchor="middle" class="color-hex">#5a93aa</text>
  </g>
</svg>